<svg width="32" height="32" viewBox="0 0 32 32" fill="none" xmlns="http://www.w3.org/2000/svg">
    <g clip-path="url(#clip0)">
        <path fill-rule="evenodd" clip-rule="evenodd"
            d="M-8 0H52.8006V2.46156H-8V0ZM-8 4.92312H52.8006V7.38469H-8V4.92312ZM-8 9.84625H52.8006V12.3078H-8V9.84625ZM-8 14.7694H52.8006V17.2309H-8V14.7694ZM-8 19.6925H52.8006V22.1541H-8V19.6925ZM-8 24.6156H52.8006V27.0772H-8V24.6156ZM-8 29.5387H52.8006V32.0003H-8V29.5387Z"
            fill="#BD3D44" />
        <path fill-rule="evenodd" clip-rule="evenodd"
            d="M-8 2.46155H52.8006V4.92311H-8V2.46155ZM-8 7.38467H52.8006V9.84623H-8V7.38467ZM-8 12.3078H52.8006V14.7694H-8V12.3078ZM-8 17.2309H52.8006V19.6925H-8V17.2309ZM-8 22.154H52.8006V24.6156H-8V22.154ZM-8 27.0772H52.8006V29.5387H-8V27.0772Z"
            fill="white" />
        <path fill-rule="evenodd" clip-rule="evenodd" d="M-8 0H16.3202V17.2309H-8V0Z" fill="#192F5D" />
        <path fill-rule="evenodd" clip-rule="evenodd"
            d="M-5.98153 0.738464L-5.73537 1.4277H-5.04613L-5.61229 1.84617L-5.39075 2.51079L-5.98153 2.09232L-6.52307 2.51079L-6.30153 1.84617L-6.8923 1.4277H-6.15383L-5.98153 0.738464ZM-1.91995 0.738464L-1.69841 1.4277H-0.984552L-1.57533 1.84617L-1.32917 2.51079L-1.91995 2.09232L-2.51072 2.51079L-2.26456 1.84617L-2.85534 1.4277H-2.14149L-1.91995 0.738464ZM2.14163 0.738464L2.36317 1.4277H3.07703L2.48625 1.84617L2.73241 2.51079L2.14163 2.09232L1.55086 2.51079L1.79701 1.84617L1.20624 1.4277H1.92009L2.14163 0.738464ZM6.1786 0.738464L6.42475 1.4277H7.11399L6.54783 1.84617L6.76937 2.51079L6.1786 2.09232L5.61244 2.51079L5.83398 1.84617L5.2432 1.4277H5.98167L6.1786 0.738464ZM10.2402 0.738464L10.4617 1.4277H11.1756L10.5848 1.84617L10.831 2.51079L10.2156 2.09232L9.6494 2.51079L9.87094 1.84617L9.28017 1.4277H9.99402L10.2402 0.738464ZM14.3018 0.738464L14.5233 1.4277H15.2372L14.6464 1.84617L14.8925 2.51079L14.3018 2.09232L13.711 2.51079L13.9571 1.84617L13.3664 1.4277H14.0802L14.3018 0.738464ZM-3.93843 2.46156L-3.71689 3.1508H-3.00303L-3.59381 3.56926L-3.34765 4.23388L-3.93843 3.81542L-4.5292 4.23388L-4.28305 3.56926L-4.87382 3.1508H-4.15997L-3.93843 2.46156ZM0.0985364 2.46156L0.344693 3.1508H1.03393L0.467771 3.56926L0.689311 4.23388L0.0985364 3.81542L-0.467623 4.23388L-0.246083 3.56926L-0.836858 3.1508H-0.0983894L0.0985364 2.46156ZM4.16012 2.46156L4.38166 3.1508H5.09551L4.50473 3.56926L4.75089 4.23388L4.16012 3.81542L3.56934 4.23388L3.8155 3.56926L3.22472 3.1508H3.93857L4.16012 2.46156ZM8.22169 2.46156L8.44324 3.1508H9.15709L8.56631 3.56926L8.81247 4.23388L8.22169 3.81542L7.63092 4.23388L7.87708 3.56926L7.2863 3.1508H8.00015L8.22169 2.46156ZM12.2587 2.46156L12.5048 3.1508H13.1694L12.6033 3.56926L12.8248 4.23388L12.234 3.81542L11.6679 4.23388L11.8894 3.56926L11.2986 3.1508H12.0371L12.2587 2.46156ZM-5.95691 4.18465L-5.75998 4.87389H-5.02152L-5.61229 5.29235L-5.39075 5.95698L-5.98153 5.53851L-6.52307 5.95698L-6.30153 5.29235L-6.8923 4.87389H-6.15383L-5.95691 4.18465ZM-1.91995 4.18465L-1.69841 4.87389H-0.984552L-1.55071 5.29235L-1.32917 5.95698L-1.91995 5.53851L-2.48611 5.95698L-2.26456 5.29235L-2.85534 4.87389H-2.14149L-1.91995 4.18465ZM2.14163 4.18465L2.36317 4.87389H3.07703L2.48625 5.29235L2.73241 5.95698L2.14163 5.53851L1.55086 5.95698L1.79701 5.29235L1.20624 4.87389H1.92009L2.14163 4.18465ZM6.1786 4.18465L6.42475 4.87389H7.11399L6.54783 5.29235L6.76937 5.95698L6.1786 5.53851L5.61244 5.95698L5.83398 5.29235L5.2432 4.87389H5.98167L6.1786 4.18465ZM10.2402 4.18465L10.4617 4.87389H11.1756L10.6094 5.29235L10.831 5.95698L10.2402 5.53851L9.67402 5.95698L9.89556 5.29235L9.30478 4.87389H10.0186L10.2402 4.18465ZM14.3018 4.18465L14.5233 4.87389H15.2372L14.6464 5.29235L14.8925 5.95698L14.3018 5.53851L13.711 5.95698L13.9571 5.29235L13.3664 4.87389H14.0802L14.3018 4.18465ZM-3.93843 5.90774L-3.71689 6.59698H-3.00303L-3.59381 7.01545L-3.34765 7.68007L-3.93843 7.2616L-4.5292 7.68007L-4.28305 7.01545L-4.87382 6.59698H-4.15997L-3.93843 5.90774ZM0.0985364 5.90774L0.344693 6.59698H1.03393L0.467771 7.01545L0.689311 7.68007L0.0985364 7.2616L-0.467623 7.68007L-0.246083 7.01545L-0.836858 6.59698H-0.0983894L0.0985364 5.90774ZM4.16012 5.90774L4.38166 6.59698H5.09551L4.52935 7.01545L4.75089 7.68007L4.16012 7.2616L3.59396 7.68007L3.8155 7.01545L3.22472 6.59698H3.93857L4.16012 5.90774ZM8.22169 5.90774L8.44324 6.59698H9.15709L8.56631 7.01545L8.81247 7.68007L8.22169 7.2616L7.63092 7.68007L7.87708 7.01545L7.2863 6.59698H8.00015L8.22169 5.90774ZM12.2587 5.90774L12.5048 6.59698H13.1694L12.6033 7.01545L12.8248 7.68007L12.234 7.2616L11.6679 7.68007L11.8894 7.01545L11.2986 6.59698H12.0371L12.2587 5.90774ZM-5.95691 7.63084L-5.75998 8.32008H-5.02152L-5.61229 8.73854L-5.39075 9.40316L-5.98153 8.9847L-6.52307 9.40316L-6.30153 8.73854L-6.8923 8.32008H-6.15383L-5.95691 7.63084ZM-1.91995 7.63084L-1.69841 8.32008H-0.984552L-1.55071 8.73854L-1.32917 9.40316L-1.91995 8.9847L-2.48611 9.40316L-2.26456 8.73854L-2.85534 8.32008H-2.14149L-1.91995 7.63084ZM2.14163 7.63084L2.36317 8.32008H3.07703L2.48625 8.73854L2.73241 9.40316L2.14163 8.9847L1.55086 9.40316L1.79701 8.73854L1.20624 8.32008H1.92009L2.14163 7.63084ZM6.1786 7.63084L6.42475 8.32008H7.11399L6.54783 8.73854L6.76937 9.40316L6.1786 8.9847L5.61244 9.40316L5.83398 8.73854L5.2432 8.32008H5.98167L6.1786 7.63084ZM10.2402 7.63084L10.4617 8.32008H11.1756L10.6094 8.73854L10.831 9.40316L10.2402 8.9847L9.67402 9.40316L9.89556 8.73854L9.30478 8.32008H10.0186L10.2402 7.63084ZM14.3018 7.63084L14.5233 8.32008H15.2372L14.6464 8.73854L14.8925 9.40316L14.3018 8.9847L13.711 9.40316L13.9571 8.73854L13.3664 8.32008H14.0802L14.3018 7.63084ZM-3.93843 9.35393L-3.71689 10.0432H-3.00303L-3.59381 10.4616L-3.34765 11.1263L-3.93843 10.7078L-4.5292 11.1263L-4.28305 10.4616L-4.87382 10.0432H-4.15997L-3.93843 9.35393ZM0.0985364 9.35393L0.344693 10.0432H1.03393L0.467771 10.4616L0.689311 11.1263L0.0985364 10.7078L-0.467623 11.1263L-0.246083 10.4616L-0.836858 10.0432H-0.0983894L0.0985364 9.35393ZM4.16012 9.35393L4.38166 10.0432H5.09551L4.52935 10.4616L4.75089 11.1263L4.16012 10.7078L3.59396 11.1263L3.8155 10.4616L3.22472 10.0432H3.93857L4.16012 9.35393ZM8.22169 9.35393L8.44324 10.0432H9.15709L8.56631 10.4616L8.81247 11.1263L8.22169 10.7078L7.63092 11.1263L7.87708 10.4616L7.2863 10.0432H8.00015L8.22169 9.35393ZM12.2587 9.35393L12.5048 10.0432H13.1694L12.6033 10.4616L12.8248 11.1263L12.234 10.7078L11.6679 11.1263L11.8894 10.4616L11.2986 10.0432H12.0371L12.2587 9.35393ZM-5.95691 11.077L-5.75998 11.7663H-5.02152L-5.61229 12.1847L-5.39075 12.8493L-5.98153 12.4309L-6.52307 12.8493L-6.30153 12.1847L-6.8923 11.7663H-6.15383L-5.95691 11.077ZM-1.91995 11.077L-1.69841 11.7663H-0.984552L-1.55071 12.1847L-1.32917 12.8493L-1.91995 12.4309L-2.48611 12.8493L-2.26456 12.1847L-2.85534 11.7663H-2.14149L-1.91995 11.077ZM2.14163 11.077L2.36317 11.7663H3.07703L2.48625 12.1847L2.73241 12.8493L2.14163 12.4309L1.55086 12.8493L1.79701 12.1847L1.20624 11.7663H1.92009L2.14163 11.077ZM6.1786 11.077L6.42475 11.7663H7.11399L6.54783 12.1847L6.76937 12.8493L6.1786 12.4309L5.61244 12.8493L5.83398 12.1847L5.2432 11.7663H5.98167L6.1786 11.077ZM10.2402 11.077L10.4617 11.7663H11.1756L10.6094 12.1847L10.831 12.8493L10.2402 12.4309L9.67402 12.8493L9.89556 12.1847L9.30478 11.7663H10.0186L10.2402 11.077ZM14.3018 11.077L14.5233 11.7663H15.2372L14.6464 12.1847L14.8925 12.8493L14.3018 12.4309L13.711 12.8493L13.9571 12.1847L13.3664 11.7663H14.0802L14.3018 11.077ZM-3.93843 12.8001L-3.71689 13.4894H-3.00303L-3.59381 13.9078L-3.34765 14.5724L-3.93843 14.154L-4.5292 14.5724L-4.28305 13.9078L-4.87382 13.4894H-4.15997L-3.93843 12.8001ZM0.0985364 12.8001L0.344693 13.4894H1.03393L0.467771 13.9078L0.689311 14.5724L0.0985364 14.154L-0.467623 14.5724L-0.246083 13.9078L-0.836858 13.4894H-0.0983894L0.0985364 12.8001ZM4.16012 12.8001L4.38166 13.4894H5.09551L4.52935 13.9078L4.75089 14.5724L4.16012 14.154L3.59396 14.5724L3.8155 13.9078L3.22472 13.4894H3.93857L4.16012 12.8001ZM8.22169 12.8001L8.44324 13.4894H9.15709L8.56631 13.9078L8.81247 14.5724L8.22169 14.154L7.63092 14.5724L7.87708 13.9078L7.2863 13.4894H8.00015L8.22169 12.8001ZM12.2587 12.8001L12.5048 13.4894H13.1694L12.6033 13.9078L12.8248 14.5724L12.234 14.154L11.6679 14.5724L11.8894 13.9078L11.2986 13.4894H12.0371L12.2587 12.8001ZM-5.95691 14.5232L-5.75998 15.2124H-5.02152L-5.61229 15.6309L-5.39075 16.2955L-5.98153 15.8771L-6.52307 16.2955L-6.30153 15.6309L-6.8923 15.2124H-6.15383L-5.95691 14.5232ZM-1.91995 14.5232L-1.69841 15.2124H-0.984552L-1.55071 15.6309L-1.32917 16.2955L-1.91995 15.8771L-2.48611 16.2955L-2.26456 15.6309L-2.85534 15.2124H-2.14149L-1.91995 14.5232ZM2.14163 14.5232L2.36317 15.2124H3.07703L2.48625 15.6309L2.73241 16.2955L2.14163 15.8771L1.55086 16.2955L1.79701 15.6309L1.20624 15.2124H1.92009L2.14163 14.5232ZM6.1786 14.5232L6.42475 15.2124H7.11399L6.54783 15.6309L6.76937 16.2955L6.1786 15.8771L5.61244 16.2955L5.83398 15.6309L5.2432 15.2124H5.98167L6.1786 14.5232ZM10.2402 14.5232L10.4617 15.2124H11.1756L10.6094 15.6309L10.831 16.2955L10.2402 15.8771L9.67402 16.2955L9.89556 15.6309L9.30478 15.2124H10.0186L10.2402 14.5232ZM14.3018 14.5232L14.5233 15.2124H15.2372L14.6464 15.6309L14.8925 16.2955L14.3018 15.8771L13.711 16.2955L13.9571 15.6309L13.3664 15.2124H14.0802L14.3018 14.5232Z"
            fill="white" />
    </g>
    <defs>
        <clipPath id="clip0">
            <rect width="32" height="32" fill="white" />
        </clipPath>
    </defs>
</svg>