<svg width="20" height="20" viewBox="0 0 20 20" fill="none" xmlns="http://www.w3.org/2000/svg">
    <path fill-rule="evenodd" clip-rule="evenodd" d="M10 1.66663C6.77501 1.66663 4.16667 4.27496 4.16667 7.49996C4.16667 11.875 10 18.3333 10 18.3333C10 18.3333 15.8333 11.875 15.8333 7.49996C15.8333 4.27496 13.225 1.66663 10 1.66663ZM5.83334 7.49996C5.83334 5.19996 7.7 3.33329 10 3.33329C12.3 3.33329 14.1667 5.19996 14.1667 7.49996C14.1667 9.89996 11.7667 13.4916 10 15.7333C8.26667 13.5083 5.83334 9.87496 5.83334 7.49996ZM7.91667 7.49996C7.91667 6.34937 8.84941 5.41663 10 5.41663C10.7443 5.41663 11.4321 5.81371 11.8042 6.45829C12.1764 7.10288 12.1764 7.89704 11.8042 8.54163C11.4321 9.18621 10.7443 9.58329 10 9.58329C8.84941 9.58329 7.91667 8.65055 7.91667 7.49996Z" fill="white"/>
</svg>
