<svg width="60" height="60" viewBox="0 0 60 60" fill="none" xmlns="http://www.w3.org/2000/svg">
    <path d="M28.4022 9.9293C29.0363 12.0904 27.8055 13.8771 27.2088 14.4752H32.6983C32.7779 14.3556 32.9848 13.7335 33.1757 12.6808C33.3059 11.963 33.1757 11.2452 32.6983 9.9293C32.221 8.61337 30.5503 7.29744 29.7149 5.86188C29.0466 4.71343 29.0387 1.47544 29.1182 0C27.9646 1.15642 26.1348 4.54594 26.7315 6.3404C27.6092 8.98014 27.8055 7.89559 28.4022 9.9293Z" fill="#F78F1E"/>
    <path d="M49.4084 25.0222C47.3955 26.0234 45.4265 25.1186 44.7353 24.6334L45.6885 30.0528C45.8198 30.1106 46.4669 30.2068 47.5343 30.2125C48.262 30.2163 48.9446 29.9632 50.1544 29.2634C51.3643 28.5637 52.3669 26.6858 53.6322 25.6118C54.6444 24.7526 57.824 24.1825 59.2872 24.0048C57.9509 23.0668 54.3033 21.8489 52.644 22.7496C50.2032 24.0745 51.3027 24.0799 49.4084 25.0222Z" fill="#F78F1E"/>
    <path d="M10.0649 28.0171C12.298 27.7664 13.8395 29.2917 14.3236 29.9846L15.2768 24.5652C15.1731 24.4659 14.5979 24.1537 13.5968 23.7823C12.9143 23.5292 12.1865 23.5331 10.8109 23.7758C9.43523 24.0186 7.85234 25.4394 6.297 26.0148C5.05272 26.4752 1.87035 25.9207 0.434704 25.586C1.37045 26.9257 4.38255 29.3207 6.24903 29.0432C8.99472 28.6351 7.96334 28.253 10.0649 28.0171Z" fill="#F78F1E"/>
    <path d="M46.5889 18.7186C45.039 20.3496 42.88 20.1745 42.065 19.9555L44.8097 24.7213C44.9528 24.7305 45.5937 24.5991 46.5986 24.2385C47.2838 23.9926 47.8388 23.5207 48.737 22.4483C49.6351 21.3759 49.9366 19.2675 50.7591 17.8245C51.4171 16.6701 54.2105 15.0442 55.5249 14.3756C53.949 13.9523 50.1059 14.0585 48.854 15.4737C47.0124 17.5556 48.0475 17.1837 46.5889 18.7186Z" fill="#F78F1E"/>
    <path d="M11.8583 21.3523C14.0423 21.8824 14.9705 23.8442 15.1889 24.6613L17.9337 19.8956C17.8701 19.7667 17.4361 19.2761 16.6221 18.5839C16.0671 18.112 15.3819 17.8662 14.0064 17.6226C12.6309 17.379 10.6587 18.1715 9.00084 18.179C7.67455 18.1849 4.87326 16.5728 3.6384 15.766C4.06064 17.3457 6.07395 20.6291 7.92252 21.0083C10.6419 21.5661 9.80307 20.8535 11.8583 21.3523Z" fill="#F78F1E"/>
    <path d="M15.851 15.7372C17.7224 16.9842 17.9253 19.1459 17.8517 19.9886L22.0569 16.4514C22.0411 16.3084 21.8007 15.6986 21.272 14.7691C20.9114 14.1354 20.3515 13.6694 19.142 12.969C17.9325 12.2685 15.8089 12.337 14.2485 11.7755C13.0001 11.3264 10.9178 8.85109 10.0327 7.66957C9.89049 9.29878 10.6622 13.0744 12.2699 14.0645C14.6349 15.5211 14.0898 14.5638 15.851 15.7372Z" fill="#F78F1E"/>
    <path d="M35.4515 10.6611C35.31 12.9092 33.5439 14.1662 32.7791 14.5237L37.9376 16.4058C38.0531 16.3207 38.4598 15.8071 38.9984 14.8833C39.3656 14.2534 39.4881 13.5343 39.4886 12.134C39.489 10.7338 38.368 8.92442 38.0728 7.28902C37.8366 5.9807 38.9339 2.93526 39.5121 1.57608C38.0335 2.26724 35.1576 4.82497 35.106 6.71578C35.0302 9.49727 35.5847 8.54543 35.4515 10.6611Z" fill="#F78F1E"/>
    <path d="M41.7559 13.7824C40.8559 15.8464 38.7675 16.4221 37.9268 16.4958L42.132 20.0331C42.2697 19.9927 42.827 19.6495 43.6483 18.966C44.2083 18.5001 44.5688 17.8663 45.047 16.5507C45.5251 15.235 45.089 13.1504 45.3696 11.5124C45.5941 10.2021 47.6642 7.71648 48.6712 6.6375C47.046 6.78003 43.4709 8.19748 42.7773 9.95659C41.7571 12.5443 42.6029 11.84 41.7559 13.7824Z" fill="#F78F1E"/>
    <path d="M21.7378 11.5888C23.0709 13.4022 22.524 15.5031 22.1674 16.2698L27.3258 14.3877C27.3598 14.248 27.3419 13.5925 27.1622 12.5378C27.0396 11.8186 26.6724 11.1888 25.7748 10.1159C24.8773 9.04296 22.8584 8.37921 21.5836 7.31664C20.5638 6.46657 19.4516 3.42659 19.0229 2.01285C18.3335 3.49506 17.7704 7.30754 18.9434 8.78919C20.6688 10.9688 20.4832 9.88235 21.7378 11.5888Z" fill="#F78F1E"/>
    <path d="M31.5978 50.0707C30.9637 47.9096 32.1945 46.1229 32.7912 45.5248H27.3017C27.2221 45.6444 27.0152 46.2665 26.8243 47.3192C26.6941 48.037 26.8243 48.7548 27.3017 50.0707C27.779 51.3866 29.4497 52.7026 30.2851 54.1381C30.9534 55.2866 30.9613 58.5246 30.8818 60C32.0354 58.8436 33.8652 55.4541 33.2685 53.6596C32.3908 51.0199 32.1945 52.1044 31.5978 50.0707Z" fill="#F78F1E"/>
    <path d="M10.5916 34.9778C12.6045 33.9766 14.5735 34.8814 15.2647 35.3666L14.3115 29.9472C14.1802 29.8894 13.5331 29.7932 12.4657 29.7875C11.738 29.7837 11.0554 30.0368 9.84557 30.7366C8.6357 31.4363 7.63305 33.3142 6.36782 34.3882C5.35564 35.2474 2.17604 35.8175 0.712757 35.9952C2.04914 36.9332 5.69674 38.1511 7.35599 37.2504C9.79684 35.9255 8.69729 35.9201 10.5916 34.9778Z" fill="#F78F1E"/>
    <path d="M49.935 31.9829C47.7019 32.2336 46.1603 30.7083 45.6763 30.0154L44.7231 35.4348C44.8268 35.5341 45.402 35.8463 46.4031 36.2177C47.0856 36.4708 47.8133 36.4669 49.189 36.2242C50.5647 35.9814 52.1475 34.5606 53.7029 33.9852C54.9472 33.5248 58.1295 34.0793 59.5652 34.414C58.6294 33.0743 55.6173 30.6793 53.7509 30.9568C51.0052 31.3649 52.0365 31.747 49.935 31.9829Z" fill="#F78F1E"/>
    <path d="M13.4111 41.2814C14.961 39.6504 17.12 39.8255 17.935 40.0445L15.1903 35.2787C15.0472 35.2695 14.4063 35.4009 13.4014 35.7615C12.7162 36.0074 12.1612 36.4793 11.263 37.5517C10.3649 38.6241 10.0634 40.7325 9.24088 42.1755C8.58288 43.3299 5.78954 44.9558 4.47513 45.6244C6.05096 46.0477 9.89409 45.9415 11.146 44.5263C12.9876 42.4444 11.9525 42.8163 13.4111 41.2814Z" fill="#F78F1E"/>
    <path d="M48.1415 38.6477C45.9575 38.1176 45.0294 36.1558 44.811 35.3387L42.0662 40.1044C42.1298 40.2333 42.5638 40.7239 43.3778 41.4161C43.9328 41.888 44.618 42.1338 45.9935 42.3774C47.369 42.621 49.3412 41.8285 50.999 41.821C52.3253 41.8151 55.1266 43.4272 56.3615 44.234C55.9392 42.6543 53.9259 39.3709 52.0774 38.9917C49.358 38.4339 50.1968 39.1465 48.1415 38.6477Z" fill="#F78F1E"/>
    <path d="M44.1492 44.2628C42.2777 43.0158 42.0749 40.8541 42.1484 40.0114L37.9432 43.5486C37.959 43.6916 38.1994 44.3014 38.7282 45.2309C39.0887 45.8646 39.6487 46.3306 40.8581 47.031C42.0676 47.7315 44.1912 47.663 45.7516 48.2245C47 48.6736 49.0823 51.1489 49.9674 52.3304C50.1096 50.7012 49.338 46.9256 47.7303 45.9355C45.3652 44.4789 45.9103 45.4362 44.1492 44.2628Z" fill="#F78F1E"/>
    <path d="M24.5484 49.3389C24.6899 47.0908 26.456 45.8338 27.2208 45.4763L22.0623 43.5942C21.9467 43.6793 21.5401 44.1929 21.0015 45.1167C20.6343 45.7466 20.5117 46.4657 20.5113 47.866C20.5109 49.2662 21.6319 51.0756 21.9271 52.711C22.1632 54.0193 21.066 57.0647 20.4878 58.4239C21.9664 57.7328 24.8423 55.175 24.8939 53.2842C24.9697 50.5027 24.4152 51.4546 24.5484 49.3389Z" fill="#F78F1E"/>
    <path d="M18.2441 46.2176C19.1441 44.1536 21.2325 43.5779 22.0732 43.5042L17.868 39.9669C17.7303 40.0073 17.173 40.3505 16.3517 41.034C15.7917 41.4999 15.4312 42.1337 14.953 43.4493C14.4749 44.765 14.911 46.8496 14.6304 48.4876C14.4059 49.7979 12.3358 52.2835 11.3288 53.3625C12.954 53.22 16.5291 51.8025 17.2227 50.0434C18.2429 47.4557 17.3971 48.16 18.2441 46.2176Z" fill="#F78F1E"/>
    <path d="M38.2622 48.4112C36.9291 46.5978 37.476 44.4969 37.8326 43.7302L32.6742 45.6123C32.6402 45.752 32.6581 46.4075 32.8378 47.4622C32.9604 48.1814 33.3276 48.8112 34.2252 49.8841C35.1227 50.957 37.1416 51.6208 38.4164 52.6834C39.4362 53.5334 40.5484 56.5734 40.9771 57.9871C41.6665 56.5049 42.2296 52.6925 41.0566 51.2108C39.3312 49.0312 39.5168 50.1176 38.2622 48.4112Z" fill="#F78F1E"/>
    <ellipse cx="29.9625" cy="30.0361" rx="16.6458" ry="16.6867" fill="#F78F1E"/>
</svg>
