<svg width="140" height="141" viewBox="0 0 140 141" fill="none" xmlns="http://www.w3.org/2000/svg">
    <path fill-rule="evenodd" clip-rule="evenodd" d="M70 128.775C102.217 128.775 128.333 102.593 128.333 70.2958C128.333 37.9984 102.217 11.8162 70 11.8162C37.7834 11.8162 11.6667 37.9984 11.6667 70.2958C11.6667 102.593 37.7834 128.775 70 128.775Z" stroke="white" stroke-width="10" stroke-linecap="round" stroke-linejoin="round"/>
    <path fill-rule="evenodd" clip-rule="evenodd" d="M70 105.383C89.33 105.383 105 89.6741 105 70.2957C105 50.9173 89.33 35.208 70 35.208C50.67 35.208 35 50.9173 35 70.2957C35 89.6741 50.67 105.383 70 105.383Z" stroke="white" stroke-width="10" stroke-linecap="round" stroke-linejoin="round"/>
    <path fill-rule="evenodd" clip-rule="evenodd" d="M70 81.9916C76.4433 81.9916 81.6667 76.7552 81.6667 70.2957C81.6667 63.8362 76.4433 58.5998 70 58.5998C63.5567 58.5998 58.3333 63.8362 58.3333 70.2957C58.3333 76.7552 63.5567 81.9916 70 81.9916Z" stroke="white" stroke-width="10" stroke-linecap="round" stroke-linejoin="round"/>
</svg>
