<svg width="32" height="32" viewBox="0 0 32 32" fill="none" xmlns="http://www.w3.org/2000/svg">
    <g clip-path="url(#clip0)">
        <path d="M-1 0H63V64H-1V0Z" fill="#000066"/>
        <path d="M-1 0V3.73333L29.7 33.3333H33.57V29.6L2.87 0H-1ZM33.57 0V3.73333L2.87 33.3333H-1V29.6L29.7 0H33.57Z" fill="white"/>
        <path d="M13.4 0V33.3333H19.16V0H13.4ZM-1 11.1067V22.2267H33.57V11.1067H-1Z" fill="white"/>
        <path d="M-1 13.3333V20H33.57V13.3333H-1ZM14.56 0V33.3333H18V0H14.55H14.56ZM-1 33.3333L10.52 22.2267H13.1L1.58 33.3333H-1ZM-1 0L10.52 11.1067H7.95L-1 2.48V0ZM19.47 11.1067L30.99 0H33.57L22.05 11.1067H19.47ZM33.57 33.3333L22.05 22.2267H24.62L33.57 30.8533V33.3333Z" fill="#CC0000"/>
        <path fill-rule="evenodd" clip-rule="evenodd" d="M28.98 52.3333L24.61 52.84L25.21 58.6267L22.2 54.4L19.19 58.6267L19.79 52.84L15.42 52.3333L19.19 49.36L16.76 44.4933L20.86 46.56L22.2 41L23.55 46.56L27.65 44.4933L25.22 49.36L28.98 52.3333ZM47.66 57.6667L46.6 55.56L48.38 56.4533L48.96 54.04L49.54 56.4533L51.32 55.56L50.27 57.6667L51.91 58.96L50.01 59.1867L50.27 61.7067L48.97 59.8533L47.65 61.7067L47.91 59.1867L46.01 58.9733L47.66 57.6667ZM47.65 20.0533L46.6 17.9466L48.38 18.84L48.96 16.4266L49.54 18.84L51.32 17.9466L50.27 20.0533L51.91 21.36L50.01 21.5733L50.27 24.0933L48.97 22.2533L47.65 24.08L47.91 21.5733L46.01 21.36L47.65 20.0533ZM37.08 35.3333L36.03 33.2266L37.81 34.12L38.39 31.7066L38.98 34.12L40.76 33.2266L39.7 35.3333L41.34 36.6266L39.44 36.8533L39.71 39.3733L38.39 37.52L37.09 39.3733L37.34 36.8533L35.44 36.64L37.08 35.3333ZM57.07 31.5733L56 29.4666L57.78 30.36L58.36 27.9466L58.95 30.36L60.73 29.4666L59.68 31.5733L61.31 32.8666L59.41 33.0933L59.67 35.6L58.37 33.76L57.05 35.6L57.31 33.0933L55.41 32.8666L57.07 31.5733ZM53.2 42.6666L52.17 43.5333L52.46 41.9466L51.53 40.9066L52.74 40.7733L53.2 39.28L53.67 40.7866L54.88 40.9066L53.95 41.9466L54.24 43.5333" fill="white"/>
    </g>
    <defs>
        <clipPath id="clip0">
            <rect width="32" height="32" rx="16" fill="white"/>
        </clipPath>
    </defs>
</svg>
