<svg width="192" height="148" viewBox="0 0 192 148" fill="none" xmlns="http://www.w3.org/2000/svg">
    <g clip-path="url(#clip0)">
        <path d="M134.354 55.9091C134.354 55.9091 133.903 53.3637 129.656 53.3637C125.41 53.3637 7.49896 53.3637 7.49896 53.3637C7.49896 53.3637 4.3366 52.9091 3.43307 54.9091C2.16813 57.5455 0.361073 61.4546 0.361073 61.4546C0.361073 61.4546 -0.271398 62.6364 -0.000338949 63.2728L30.9907 125.364C30.9907 125.364 31.7135 128.546 35.6891 128.546C39.6646 128.546 162.635 128.546 162.635 128.546C162.635 128.546 165.165 127.818 165.165 126.273C165.165 124.727 165.165 118.364 165.165 118.364L134.354 55.9091ZM39.0321 115.545L11.4745 59.6364H128.933L157.123 115.545H39.0321Z" fill="#3B3B3B"/>
        <path d="M42.0513 55.2164L33.9827 59.3082L65.0936 121.412L73.1622 117.32L42.0513 55.2164Z" fill="#3B3B3B"/>
        <path d="M73.5118 55.2769L65.4306 59.3423L96.5431 121.95L104.624 117.885L73.5118 55.2769Z" fill="#3B3B3B"/>
        <path d="M104.118 55.0191L96.0491 59.1109L127.526 121.946L135.595 117.854L104.118 55.0191Z" fill="#3B3B3B"/>
        <path d="M87.1002 128.455V143.909H105.803V128.455" fill="#3B3B3B"/>
        <path d="M122.79 148H70.2042C67.9454 148 66.1383 146.182 66.1383 143.909C66.1383 141.636 67.9454 139.818 70.2042 139.818H122.79C125.048 139.818 126.856 141.636 126.856 143.909C126.856 146.182 124.958 148 122.79 148Z" fill="#3B3B3B"/>
        <path d="M59.8136 106.909H42.1045C39.8456 106.909 38.0386 105.091 38.0386 102.818C38.0386 100.545 39.8456 98.7273 42.1045 98.7273H59.8136C62.0725 98.7273 63.8795 100.545 63.8795 102.818C63.8795 105.091 62.0725 106.909 59.8136 106.909Z" fill="#3B3B3B"/>
        <path d="M108.966 106.273H94.1477C91.8889 106.273 90.0819 104.455 90.0819 102.182C90.0819 99.9091 91.8889 98.0909 94.1477 98.0909H108.966C111.224 98.0909 113.032 99.9091 113.032 102.182C113.032 104.455 111.224 106.273 108.966 106.273Z" fill="#3B3B3B"/>
        <path d="M135.71 75.0909H121.073C118.814 75.0909 117.007 73.2727 117.007 71C117.007 68.7272 118.814 66.9091 121.073 66.9091H135.71C137.969 66.9091 139.776 68.7272 139.776 71C139.776 73.1818 137.969 75.0909 135.71 75.0909Z" fill="#3B3B3B"/>
        <path d="M77.1614 80H61.8918C59.6329 80 57.8259 78.1818 57.8259 75.9091C57.8259 73.6364 59.6329 71.8182 61.8918 71.8182H77.1614C79.4202 71.8182 81.2273 73.6364 81.2273 75.9091C81.2273 78.0909 79.3299 80 77.1614 80Z" fill="#3B3B3B"/>
        <path d="M149.444 79.0909L145.468 72C146.643 71.3636 147.637 70.2727 147.908 69.9091C154.955 60.5454 153.058 47.0909 143.752 40C139.234 36.5454 133.632 35.0909 128.03 35.9091C122.428 36.7273 117.459 39.6363 114.025 44.1818C112.58 46.0909 111.044 49 111.044 50.1818H102.912C102.912 45.5454 106.797 40.2727 107.52 39.1818C117.278 26.1818 135.71 23.6363 148.631 33.4545C161.551 43.2727 164.081 61.8182 154.323 74.8182L154.232 74.9091C154.052 75.1818 152.154 77.5454 149.444 79.0909Z" fill="#F78F1E"/>
        <path d="M114.116 22.2727L108.514 5.36365C107.791 3.27274 108.966 0.909104 111.044 0.181831C113.122 -0.545441 115.471 0.636377 116.194 2.72729L121.796 19.6364C122.519 21.7273 121.344 24.0909 119.266 24.8182C117.097 25.6364 114.839 24.4546 114.116 22.2727Z" fill="#F78F1E"/>
        <path d="M170.496 54.9091L188.205 56.2727C190.464 56.4545 192.09 58.4545 191.91 60.6363C191.729 62.9091 189.741 64.5454 187.573 64.3636L169.864 63.0909C167.605 62.9091 165.978 60.9091 166.159 58.7273C166.34 56.4545 168.328 54.7273 170.496 54.9091Z" fill="#F78F1E"/>
        <path d="M164.984 76.8182L178.447 88.4545C180.164 89.9091 180.344 92.5454 178.899 94.1818C177.453 95.9091 174.833 96.0909 173.207 94.6363L159.744 83C158.027 81.5454 157.847 78.9091 159.292 77.2727C160.738 75.5454 163.358 75.3636 164.984 76.8182Z" fill="#F78F1E"/>
        <path d="M96.4066 40.3636L82.3115 32.1818C80.4141 31.0909 79.6913 28.5454 80.8659 26.6364C81.9501 24.7273 84.48 24 86.3774 25.1818L100.472 33.3636C102.37 34.4545 103.093 37 101.918 38.9091C100.834 40.8182 98.3944 41.4545 96.4066 40.3636Z" fill="#F78F1E"/>
        <path d="M139.324 19.7273L145.016 2.81817C145.739 0.727258 148.088 -0.45456 150.167 0.272713C152.245 0.999985 153.419 3.36362 152.696 5.45453L147.004 22.3636C146.281 24.4545 143.932 25.6363 141.854 24.9091C139.776 24.1818 138.601 21.8182 139.324 19.7273Z" fill="#F78F1E"/>
        <path d="M161.009 31.7273L176.369 22.8182C178.266 21.7273 180.796 22.3636 181.88 24.2727C182.965 26.1818 182.332 28.7273 180.435 29.8182L165.075 38.7273C163.177 39.8182 160.648 39.1818 159.563 37.2727C158.389 35.3636 159.021 32.8182 161.009 31.7273Z" fill="#F78F1E"/>
    </g>
    <defs>
        <clipPath id="clip0">
            <rect width="192" height="148" fill="white"/>
        </clipPath>
    </defs>
</svg>
